<?xml version="1.0" encoding="utf-8"?>
<!-- Generator: Adobe Illustrator 25.0.1, SVG Export Plug-In . SVG Version: 6.00 Build 0)  -->
<svg version="1.1" id="Layer_1" xmlns="http://www.w3.org/2000/svg" xmlns:xlink="http://www.w3.org/1999/xlink" x="0px" y="0px"
	 viewBox="0 0 595.28 841.89" style="enable-background:new 0 0 595.28 841.89;" xml:space="preserve">
<path d="M354.05,545.93c0.96,3.49,1.94,6.2,2.4,9c0.43,2.58,0.27,4.83-3.63,4.82c-42.18-0.11-84.35-0.08-126.53-0.1
	c-0.61,0-1.23-0.06-2.06-0.11c-0.91-4.26-0.96-8.06,0.14-12.59c1.54-6.35,1.95-12.9,5.75-18.55c0.29-0.43,0.16-1.22,0.06-1.82
	c-2.22-14.16-1.01-28.34-0.52-42.53c0.09-2.52-0.9-5.45-2.32-7.57c-8.48-12.62-18.08-24.62-23.59-38.94
	c-4.07-10.56-8.02-21.38-10.11-32.44c-2.16-11.44-9.26-15.94-19.14-18.41c-3.74-0.94-7.47-2.07-11.28-2.61
	c-9.67-1.38-17.28-6.22-23.4-13.55c-12.86-15.4-23.21-32.41-31.85-50.48c-3.1-6.48-2.82-11.99,2.85-17.54
	c5.48-5.36,9.53-12.13,14.63-17.92c8.88-10.07,20.47-16.61,31.85-23.34c9.74-5.76,19.56-11.39,29.37-17.03
	c1.03-0.59,2.22-1.13,3.38-1.24c13.68-1.3,26.02,3.44,38.04,9.02c6.12,2.84,7.17,9.23,8.67,15.01c1.12,4.31,1.17,8.33-3.25,11.25
	c-4.88,3.23-9.88,5.73-15.65,2.85c-7.45-3.71-15.12-7.16-20.33-14.2c-0.58-0.78-3.17-1.02-4.12-0.41
	c-7.99,5.17-14.68,11.31-17.17,21.2c-2.06,8.19-4.58,16.42-11.83,21.95c-0.27,0.21-0.42,0.61-0.55,0.95
	c-0.08,0.21-0.01,0.48-0.01,1.33c1.22-0.19,2.33-0.38,3.44-0.54c15.99-2.4,23.49,1.02,29.76,12.57c2.27,4.18,5.11,5.99,10.13,5.8
	c16.32-0.61,30.01,5.15,40.35,18.13c0.54,0.68,1.13,1.33,1.73,1.96c6.54,6.79,6.72,6.61,15.04,1.77
	c7.79-4.53,12.28-10.67,11.9-19.96c-0.12-2.86,0.11-5.73,0.29-8.59c0.14-2.27-0.03-4.05-2.76-4.88c-0.95-0.29-2-2.07-2.05-3.21
	c-0.22-5.71-1.83-12.19,0.27-16.97c2.9-6.6,2.78-13.76,5.86-20.15c4.08-8.46,10.2-13.98,19.65-15.52
	c11.81-1.92,22.86-0.76,32.33,7.47c3.92,3.41,6.66,7.33,6.93,12.73c0.4,7.99,1.23,15.96,1.37,23.95c0.06,3.93-0.93,7.9-1.67,11.8
	c-0.21,1.11-1.07,2.81-1.89,2.98c-3.41,0.71-2.93,3.38-3.58,5.7c-1.3,4.64-2.64,9.32-4.51,13.74c-2.41,5.68-2.28,8.12,3.02,11.26
	c5.01,2.96,10.45,5.25,15.81,7.58c6.27,2.74,12.77,4.95,17.76,10.03c0.81,0.82,2.97,1.2,4.05,0.73c13.59-5.88,24.69,0.32,35.03,7.77
	c8.59,6.19,13.45,15.14,14.88,25.88c0.23,1.74,1.85,3.8,3.42,4.76c3.27,2.01,6.91,3.45,10.44,5.03
	c21.41,9.58,32.02,26.84,34.87,49.42c0.7,5.53,0.46,11.18,0.48,16.78c0.01,3.59-1.74,6.2-4.57,8.53c-4.11,3.4-8.01,7.1-11.62,11.03
	c-16.06,17.47-36.1,27.55-59.15,31.92c-5.28,1-9.67,3.15-13.34,6.91c-4.91,5.02-10.78,7.44-17.84,7.06
	C358.03,545.32,356.33,545.7,354.05,545.93z M347.68,509.45c5.24,1.05,9.6,1.25,13.37,2.84c6.78,2.86,10.32,2.76,14.82-2.82
	c3.9-4.83,8.69-8.15,14.41-10.23c4.78-1.74,8.04-4.97,9.67-9.7c1.86-5.4,3.22-10.93,8.03-14.82c1.73-1.4,1.28-3-1.17-4.19
	c-3.53-1.72-7.19-3.61-9.99-6.28c-4.49-4.27-8.31-9.23-12.42-13.9c-0.85-0.97-1.7-1.95-2.75-3.15c-0.61,0.98-1.01,1.46-1.23,2.02
	c-5.46,13.58-13.98,24.58-26.6,32.31c-1.65,1.01-3.44,3.08-3.7,4.87C349.01,494.09,348.44,501.88,347.68,509.45z"/>
</svg>
